<?xml version="1.0" encoding="UTF-8"?>
<!DOCTYPE svg PUBLIC "-//W3C//DTD SVG 1.1//EN" "http://www.w3.org/Graphics/SVG/1.1/DTD/svg11.dtd">
<!-- Creator: CorelDRAW 2020 (64-Bit) -->
<svg xmlns="http://www.w3.org/2000/svg" xml:space="preserve" width="56px" height="56px" version="1.1" style="shape-rendering:geometricPrecision; text-rendering:geometricPrecision; image-rendering:optimizeQuality; fill-rule:evenodd; clip-rule:evenodd"
viewBox="0 0 56 56.08"
 xmlns:xlink="http://www.w3.org/1999/xlink"
 xmlns:xodm="http://www.corel.com/coreldraw/odm/2003">
 <defs>
  <style type="text/css">
   <![CDATA[
    .fil1 {fill:#90C03F}
    .fil0 {fill:#A7C95E}
    .fil2 {fill:#FEFEFE;fill-rule:nonzero}
   ]]>
  </style>
 </defs>
 <g id="Capa_x0020_1">
  <metadata id="CorelCorpID_0Corel-Layer"/>
  <g id="_3154054349552">
   <path class="fil0" d="M28.71 0c15.07,0 27.29,12.22 27.29,27.29 0,15.08 -12.22,27.3 -27.29,27.3 -4.82,0 -9.35,-1.25 -13.27,-3.45l-15.44 4.94 5.5 -14.43c-2.59,-4.17 -4.08,-9.09 -4.08,-14.36 0,-15.07 12.22,-27.29 27.29,-27.29z"/>
   <path class="fil1" d="M6.8 49.64l9.08 -2.9 1.54 0.85c3.46,1.94 7.32,2.93 11.29,2.93 12.83,0 23.23,-10.4 23.23,-23.23 0,-12.83 -10.4,-23.23 -23.23,-23.23 -12.83,0 -23.23,10.4 -23.23,23.23 0,4.33 1.19,8.54 3.47,12.22l1.06 1.71 -3.21 8.42z"/>
   <path class="fil2" d="M26.11 46.37l4.89 0 0 -3.12c4.25,-0.71 6.48,-3.43 6.48,-7.44 0,-3.57 -1.68,-6.02 -6.58,-9.23 -4.03,-2.63 -5.12,-4.19 -5.12,-6.24 0,-1.82 1.09,-2.67 2.99,-2.67 1.91,0 3,0.85 3,2.76l0 1.21 5.66 0 0 -0.89c0,-3.93 -2.18,-6.6 -6.43,-7.31l0 -2.72 -4.89 0 0 2.72c-4.19,0.75 -6.32,3.43 -6.32,7.22 0,3.38 1.69,5.88 6.59,9.04 4.03,2.59 5.12,4.19 5.12,6.42 0,2.01 -1.2,2.81 -3.11,2.81 -1.9,0 -3.1,-0.8 -3.1,-2.72l0 -2.36 -5.66 0 0 2.05c0,3.92 2.18,6.64 6.48,7.35l0 3.12z"/>
  </g>
 </g>
</svg>
