<?xml version="1.0" encoding="UTF-8"?>
<!DOCTYPE svg PUBLIC "-//W3C//DTD SVG 1.1//EN" "http://www.w3.org/Graphics/SVG/1.1/DTD/svg11.dtd">
<!-- Creator: CorelDRAW 2020 (64-Bit) -->
<svg xmlns="http://www.w3.org/2000/svg" xml:space="preserve" width="455px" height="123px" version="1.1" style="shape-rendering:geometricPrecision; text-rendering:geometricPrecision; image-rendering:optimizeQuality; fill-rule:evenodd; clip-rule:evenodd"
viewBox="0 0 455 123.14"
 xmlns:xlink="http://www.w3.org/1999/xlink"
 xmlns:xodm="http://www.corel.com/coreldraw/odm/2003">
 <defs>
  <style type="text/css">
   <![CDATA[
    .fil3 {fill:#FEFEFE}
    .fil1 {fill:#727376}
    .fil5 {fill:#FEFEFE;fill-rule:nonzero}
    .fil2 {fill:#FEFEFE;fill-rule:nonzero}
    .fil4 {fill:url(#id0)}
    .fil0 {fill:url(#id1)}
   ]]>
  </style>
  <linearGradient id="id0" gradientUnits="userSpaceOnUse" x1="29.6" y1="89.5" x2="83.66" y2="37">
   <stop offset="0" style="stop-opacity:1; stop-color:#26AD3B"/>
   <stop offset="0.380392" style="stop-opacity:1; stop-color:#4BC157"/>
   <stop offset="1" style="stop-opacity:1; stop-color:#3CF04B"/>
  </linearGradient>
  <linearGradient id="id1" gradientUnits="userSpaceOnUse" xlink:href="#id0" x1="186.11" y1="132.1" x2="224.24" y2="-4.77">
  </linearGradient>
 </defs>
 <g id="Capa_x0020_1">
  <metadata id="CorelCorpID_0Corel-Layer"/>
  <g id="_3154054330928">
   <path class="fil0" d="M63.39 0.64l329.45 0c33.84,0 61.53,27.69 61.53,61.54l0 0c0,33.84 -27.69,61.53 -61.53,61.53l-331.9 0 -0.03 0 -0.01 0c-0.52,0 -1.04,0 -1.56,-0.02l-0.01 0 0 0 -0.02 0c-0.49,-0.01 -0.97,-0.03 -1.46,-0.05l-0.09 -0.01 -0.03 0 -0.07 0c-0.48,-0.03 -0.95,-0.06 -1.42,-0.1l-0.05 0 -0.06 0c-0.47,-0.04 -0.95,-0.08 -1.43,-0.13l-0.06 -0.01 -0.1 -0.01c-6.35,-0.66 -12.56,-2.29 -18.42,-4.88l-26.05 5.08c-2.7,0.52 -5.26,-0.26 -7.2,-2.21 -1.94,-1.94 -2.72,-4.5 -2.18,-7.2l4.92 -24.99c-2.95,-6.05 -4.88,-12.51 -5.73,-19.16l-0.01 -0.03c-0.06,-0.49 -0.12,-0.97 -0.17,-1.46l-0.01 -0.15c-0.05,-0.47 -0.09,-0.94 -0.13,-1.4l0 -0.09 -0.01 -0.06c-0.03,-0.47 -0.07,-0.95 -0.09,-1.42l0 -0.08 -0.01 -0.1c-0.02,-0.44 -0.04,-0.88 -0.05,-1.32l0 -0.15 -0.01 -0.09c-0.01,-0.5 -0.02,-0.99 -0.02,-1.49l0 0 0 0 0 -0.03c0,-0.52 0.01,-1.04 0.03,-1.55 0.82,-33.28 28.06,-60.01 61.54,-60.01 0.82,0 1.64,0.02 2.45,0.05zm-63.52 69.35c-0.06,-0.49 -0.12,-0.97 -0.17,-1.46z"/>
   <path class="fil1" d="M221.36 68.38c-0.08,-0.1 -0.15,-0.2 -0.21,-0.31 -0.37,-0.63 -0.38,-1.36 -0.01,-1.99l4.35 -7.61c0.36,-0.64 1,-1.01 1.73,-1.01l9.39 0c0.77,0 1.42,0.4 1.78,1.08 0.35,0.68 0.3,1.45 -0.15,2.08l-5.38 7.6c-0.04,0.06 -0.08,0.11 -0.12,0.16l7.67 0c1.1,0 2,0.9 2,2l0 8c0,1.1 -0.9,2 -2,2l-14.64 0 0 1.09 14 0c1.1,0 2,0.9 2,2l0 8c0,1.1 -0.9,2 -2,2l-14 0 0 1.29 14.89 0c1.1,0 2,0.9 2,2l0 8c0,1.1 -0.9,2 -2,2l-26.23 0c-0.76,0 -1.41,-0.42 -1.76,-1.04 -0.35,0.66 -1,1.04 -1.75,1.04l-10.52 0c-0.7,0 -1.31,-0.32 -1.68,-0.91l-6.23 -9.66 -1.26 0 0 8.57c0,1.1 -0.9,2 -2,2l-9.38 0c-1.11,0 -2,-0.9 -2,-2l0 -34.38c0,-1.1 0.89,-2 2,-2l15.36 0c2.74,0 5.47,0.47 7.95,1.69 2.27,1.12 4.15,2.73 5.5,4.88 1.39,2.2 1.99,4.69 1.99,7.29 0,2.52 -0.56,4.95 -1.87,7.12 -0.87,1.46 -1.98,2.69 -3.31,3.69l6.96 10.37 0 -33.04c0,-1.1 0.9,-2 2,-2l6.93 0zm133.03 -15.73l0 -33.1c0,-1.1 0.9,-2 2,-2l15.36 0c2.75,0 5.47,0.47 7.95,1.69 2.27,1.12 4.15,2.73 5.5,4.88 1.39,2.2 1.99,4.69 1.99,7.29 0,2.52 -0.56,4.95 -1.86,7.13 -0.88,1.46 -1.99,2.69 -3.32,3.68l7.11 10.6c0.42,0.63 0.46,1.39 0.11,2.06 -0.36,0.67 -1.01,1.06 -1.77,1.06l-10.52 0c-0.7,0 -1.3,-0.33 -1.68,-0.92l-6.23 -9.66 -1.26 0 0 8.58c0,1.1 -0.9,2 -2,2l-9.38 0c-0.81,0 -1.51,-0.49 -1.83,-1.19 -0.05,0.11 -0.11,0.22 -0.19,0.33 -0.38,0.55 -0.96,0.86 -1.64,0.86l-9.93 0c-0.88,0 -1.62,-0.54 -1.9,-1.37l-1.52 -4.56 -9.12 0 -1.52 4.56c-0.27,0.83 -1.02,1.37 -1.9,1.37l-9.43 0c-0.68,0 -1.26,-0.31 -1.64,-0.86 -0.39,-0.56 -0.47,-1.2 -0.24,-1.84l12.7 -34.38c0.29,-0.8 1.02,-1.31 1.87,-1.31l9.94 0c0.85,0 1.58,0.51 1.87,1.31l12.48 33.79zm-203.32 -14.05c-0.05,-0.61 -0.07,-1.23 -0.07,-1.86 0,-2.7 0.44,-5.36 1.45,-7.88 0.95,-2.4 2.34,-4.55 4.16,-6.39 1.83,-1.85 3.97,-3.26 6.37,-4.25 2.54,-1.05 5.25,-1.51 8,-1.51 2.75,0 5.45,0.46 8,1.51 2.4,0.99 4.54,2.4 6.36,4.25 1.83,1.84 3.21,3.99 4.17,6.39 1,2.52 1.45,5.18 1.45,7.88 0,2.71 -0.45,5.36 -1.45,7.88 -0.96,2.41 -2.34,4.56 -4.17,6.4 -1.82,1.84 -3.96,3.25 -6.36,4.24 -2.55,1.06 -5.25,1.52 -8,1.52 -2.75,0 -5.46,-0.46 -8,-1.52 -2.4,-0.99 -4.54,-2.4 -6.37,-4.24 -1.82,-1.84 -3.21,-3.99 -4.16,-6.4 -0.24,-0.59 -0.44,-1.19 -0.62,-1.79 0,0.11 0,0.22 0,0.34 0,2.67 -0.6,5.25 -2.13,7.47 -1.45,2.13 -3.44,3.65 -5.81,4.64 -2.55,1.08 -5.32,1.5 -8.09,1.5 -4.15,0 -8.41,-0.84 -11.74,-3.48 -3.05,-2.42 -4.85,-5.68 -5.63,-9.48 -0.13,-0.61 0.02,-1.19 0.41,-1.67 0.39,-0.48 0.93,-0.74 1.55,-0.74l7.28 0c-1.9,-0.63 -3.68,-1.58 -5.12,-2.99 -2.25,-2.2 -3.02,-5.18 -3.02,-8.25 0,-2.63 0.66,-5.12 2.19,-7.28 1.48,-2.08 3.46,-3.6 5.79,-4.63 2.47,-1.08 5.11,-1.55 7.8,-1.55 3.92,0 7.78,0.86 10.94,3.28 3.02,2.3 4.72,5.46 5.27,9.2 0.08,0.6 -0.08,1.14 -0.47,1.6 -0.39,0.45 -0.91,0.69 -1.51,0.69l-7.15 0c2.33,0.66 4.57,1.73 6.31,3.45 1.09,1.08 1.86,2.32 2.37,3.67zm-19.73 3.69c0.12,0.19 0.22,0.4 0.27,0.62 0.16,0.61 0.61,1.03 1.12,1.36 0.85,0.55 1.93,0.7 2.92,0.7 0.76,0 1.77,-0.09 2.44,-0.48 0.07,-0.05 0.27,-0.18 0.31,-0.29 0,-0.04 -0.01,-0.17 0.01,-0.17 -0.16,-0.15 -0.61,-0.33 -0.8,-0.4 -1.03,-0.39 -2.35,-0.63 -3.45,-0.82l-2.82 -0.52zm7.31 -11.6c-0.15,-0.2 -0.26,-0.43 -0.33,-0.69 -0.12,-0.44 -0.39,-0.75 -0.76,-1.01 -0.56,-0.4 -1.49,-0.47 -2.15,-0.47 -0.65,0 -1.63,0.06 -2.19,0.43 -0.08,0.06 -0.27,0.15 -0.27,0.28 0.03,0.04 0.12,0.09 0.16,0.12 0.66,0.44 2.77,0.84 3.55,0.98l1.99 0.36zm66.44 13.14l14.01 0c1.1,0 2,0.9 2,2l0 8.11c0,1.1 -0.9,2 -2,2l-25.4 0c-1.1,0 -2,-0.9 -2,-2l0 -34.39c0,-1.1 0.9,-2 2,-2l9.39 0c1.1,0 2,0.9 2,2l0 24.28zm28.28 12.11l-9.38 0c-1.1,0 -2,-0.9 -2,-2l0 -34.39c0,-1.1 0.9,-2 2,-2l9.38 0c1.1,0 2,0.9 2,2l0 34.39c0,1.1 -0.9,2 -2,2zm2.75 -19.2c0,-3.58 0.7,-7.06 2.38,-10.24 1.59,-3.02 3.84,-5.43 6.76,-7.18 3.06,-1.83 6.46,-2.61 10,-2.61 3.12,0 6.27,0.53 9.05,2.02 2.44,1.31 4.47,3.11 5.97,5.44 1.45,2.26 2.37,4.73 2.77,7.38 0.09,0.6 -0.07,1.15 -0.47,1.61 -0.39,0.45 -0.91,0.69 -1.51,0.69l-9.69 0c-0.97,0 -1.78,-0.68 -1.96,-1.63 -0.18,-0.94 -0.59,-1.71 -1.31,-2.33 -0.81,-0.7 -1.92,-0.88 -2.95,-0.88 -1.63,0 -2.88,0.57 -3.88,1.85 -1.29,1.64 -1.63,3.86 -1.63,5.88 0,2.04 0.37,4.2 1.64,5.85 0.99,1.3 2.24,1.88 3.87,1.88 1.08,0 2.23,-0.18 3.11,-0.85 0.7,-0.53 1.1,-1.2 1.24,-2.07 0.16,-0.97 0.99,-1.67 1.97,-1.67l9.59 0c0.6,0 1.12,0.24 1.51,0.7 0.4,0.46 0.56,1.01 0.47,1.6 -0.41,2.63 -1.32,5.07 -2.78,7.29 -1.51,2.31 -3.54,4.08 -5.98,5.35 -2.78,1.45 -5.93,1.96 -9.03,1.96 -3.54,0 -6.94,-0.78 -10,-2.61 -2.92,-1.75 -5.17,-4.17 -6.76,-7.18 -1.68,-3.18 -2.38,-6.67 -2.38,-10.25zm48.98 19.2l-9.39 0c-1.1,0 -2,-0.9 -2,-2l0 -34.39c0,-1.1 0.9,-2 2,-2l9.39 0c1.1,0 2,0.9 2,2l0 34.39c0,1.1 -0.9,2 -2,2zm13.31 -26.29l-8.42 0c-1.1,0 -2,-0.9 -2,-2l0 -8.1c0,-1.1 0.9,-2 2,-2l30.23 0c1.1,0 2,0.9 2,2l0 8.1c0,1.1 -0.9,2 -2,2l-8.42 0 0 24.29c0,1.1 -0.9,2 -2,2l-9.39 0c-1.1,0 -2,-0.9 -2,-2l0 -24.29zm-158.16 57.92c0,-3.58 0.7,-7.06 2.38,-10.25 1.59,-3.01 3.85,-5.42 6.77,-7.17 3.05,-1.83 6.45,-2.61 9.99,-2.61 3.12,0 6.28,0.53 9.05,2.02 2.44,1.31 4.47,3.11 5.97,5.44 1.46,2.25 2.37,4.73 2.77,7.38 0.09,0.6 -0.07,1.15 -0.46,1.61 -0.4,0.45 -0.92,0.69 -1.52,0.69l-9.68 0c-0.97,0 -1.79,-0.68 -1.97,-1.63 -0.17,-0.94 -0.58,-1.71 -1.31,-2.34 -0.81,-0.69 -1.91,-0.87 -2.95,-0.87 -1.62,0 -2.88,0.57 -3.88,1.85 -1.28,1.64 -1.63,3.86 -1.63,5.88 0,2.04 0.37,4.19 1.64,5.85 1,1.3 2.24,1.88 3.87,1.88 1.08,0 2.24,-0.18 3.11,-0.85 0.71,-0.53 1.1,-1.2 1.24,-2.07 0.17,-0.97 0.99,-1.67 1.98,-1.67l9.58 0c0.6,0 1.12,0.24 1.52,0.7 0.39,0.45 0.55,1 0.46,1.6 -0.4,2.62 -1.32,5.07 -2.78,7.29 -1.5,2.3 -3.54,4.07 -5.98,5.35 -2.77,1.45 -5.92,1.95 -9.03,1.95 -3.54,0 -6.94,-0.77 -9.99,-2.6 -2.93,-1.75 -5.18,-4.17 -6.77,-7.18 -1.68,-3.18 -2.38,-6.67 -2.38,-10.25zm103.94 17.19l0 -34.38c0,-1.1 0.9,-2 2,-2l13.79 0c3.62,0 7.23,0.64 10.45,2.36 2.96,1.58 5.29,3.84 6.91,6.78 1.71,3.09 2.37,6.54 2.37,10.05 0,3.5 -0.67,6.94 -2.37,10.03 -1.61,2.95 -3.94,5.22 -6.91,6.8 -3.22,1.72 -6.83,2.36 -10.45,2.36l-13.79 0c-1.1,0 -2,-0.9 -2,-2zm47.65 2l-9.38 0c-1.1,0 -2,-0.9 -2,-2l0 -34.38c0,-1.1 0.9,-2 2,-2l9.38 0c1.1,0 2,0.9 2,2l0 34.38c0,1.1 -0.9,2 -2,2zm13.32 -26.28l-8.43 0c-1.1,0 -2,-0.9 -2,-2l0 -8.1c0,-1.1 0.9,-2 2,-2l30.24 0c1.1,0 2,0.9 2,2l0 8.1c0,1.1 -0.9,2 -2,2l-8.43 0 0 24.28c0,1.1 -0.89,2 -2,2l-9.38 0c-1.1,0 -2,-0.9 -2,-2l0 -24.28zm42.01 27.12c-2.75,0 -5.45,-0.45 -8,-1.51 -2.39,-0.99 -4.54,-2.4 -6.36,-4.24 -1.82,-1.84 -3.21,-3.99 -4.17,-6.4 -1,-2.52 -1.45,-5.17 -1.45,-7.88 0,-2.7 0.45,-5.36 1.45,-7.88 0.96,-2.4 2.35,-4.56 4.17,-6.4 1.82,-1.84 3.97,-3.25 6.36,-4.24 2.55,-1.05 5.25,-1.51 8,-1.51 2.75,0 5.46,0.46 8.01,1.51 2.39,0.99 4.54,2.4 6.36,4.24 1.82,1.84 3.21,4 4.17,6.4 1,2.52 1.45,5.18 1.45,7.88 0,2.71 -0.45,5.36 -1.45,7.88 -0.96,2.41 -2.35,4.56 -4.17,6.4 -1.83,1.84 -3.97,3.25 -6.36,4.24 -2.55,1.06 -5.26,1.51 -8.01,1.51zm-176.19 -63.13c1.19,0 2.33,-0.25 3.35,-0.89 1,-0.64 1.72,-1.53 2.23,-2.59 0.64,-1.32 0.87,-2.79 0.87,-4.25 0,-1.45 -0.23,-2.92 -0.87,-4.24 -0.51,-1.07 -1.23,-1.95 -2.23,-2.59 -1.02,-0.65 -2.16,-0.9 -3.35,-0.9 -1.2,0 -2.32,0.27 -3.33,0.9 -1.01,0.64 -1.74,1.52 -2.26,2.59 -0.63,1.32 -0.86,2.79 -0.86,4.24 0,1.46 0.23,2.93 0.86,4.25 0.52,1.07 1.25,1.95 2.26,2.58 1.01,0.64 2.13,0.9 3.33,0.9zm163.23 -6.42l1.24 0 -0.62 -1.9 -0.62 1.9zm33.56 -4.54l2.55 0c0.75,0 2.18,-0.08 2.79,-0.59 0.46,-0.39 0.54,-1.04 0.54,-1.61 0,-0.46 -0.05,-1.06 -0.45,-1.36 -0.63,-0.47 -2.13,-0.54 -2.88,-0.54l-2.55 0 0 4.1zm-176.54 50.83l2.55 0c0.74,0 2.17,-0.08 2.78,-0.59 0.47,-0.39 0.55,-1.04 0.55,-1.61 0,-0.46 -0.05,-1.07 -0.45,-1.36 -0.64,-0.48 -2.13,-0.55 -2.88,-0.55l-2.55 0 0 4.11zm66.35 10.32l1.8 0c1.85,0 3.76,-0.37 5.08,-1.75 1.36,-1.42 1.72,-3.45 1.72,-5.34 0,-1.88 -0.35,-3.94 -1.71,-5.35 -1.33,-1.37 -3.25,-1.74 -5.09,-1.74l-1.8 0 0 14.18zm89.59 0.64c1.2,0 2.34,-0.25 3.35,-0.89 1,-0.64 1.72,-1.53 2.24,-2.59 0.64,-1.32 0.86,-2.79 0.86,-4.25 0,-1.45 -0.22,-2.92 -0.86,-4.24 -0.52,-1.07 -1.24,-1.96 -2.24,-2.59 -1.01,-0.65 -2.15,-0.9 -3.35,-0.9 -1.19,0 -2.31,0.26 -3.33,0.9 -1.01,0.64 -1.73,1.52 -2.25,2.59 -0.64,1.32 -0.86,2.79 -0.86,4.24 0,1.46 0.22,2.93 0.86,4.25 0.52,1.07 1.24,1.95 2.25,2.58 1.02,0.64 2.14,0.9 3.33,0.9z"/>
   <path class="fil2" d="M135.8 54.78c-4.44,0 -7.94,-1.02 -10.49,-3.04 -2.56,-2.03 -4.2,-4.8 -4.92,-8.33l9.29 0c0.26,1.02 0.92,1.87 1.97,2.55 1.06,0.67 2.39,1.01 4,1.01 1.45,0 2.61,-0.26 3.46,-0.77 0.86,-0.51 1.29,-1.17 1.29,-2 0,-0.56 -0.14,-1.03 -0.42,-1.41 -0.28,-0.37 -0.83,-0.72 -1.66,-1.03 -0.82,-0.32 -2.09,-0.62 -3.8,-0.92l-3.51 -0.64c-3.09,-0.56 -5.45,-1.63 -7.06,-3.21 -1.62,-1.58 -2.42,-3.85 -2.42,-6.82 0,-2.37 0.61,-4.41 1.82,-6.12 1.22,-1.72 2.88,-3.03 4.97,-3.96 2.09,-0.92 4.42,-1.38 6.99,-1.38 3.98,0 7.23,0.96 9.73,2.87 2.5,1.91 4,4.54 4.5,7.9l-9.29 0c-0.23,-0.86 -0.74,-1.56 -1.53,-2.12 -0.79,-0.56 -1.9,-0.84 -3.31,-0.84 -1.42,0 -2.51,0.25 -3.29,0.76 -0.77,0.51 -1.16,1.16 -1.16,1.95 0,0.73 0.35,1.32 1.04,1.78 0.69,0.46 2.12,0.89 4.3,1.29l3.5 0.64c3.3,0.59 5.79,1.73 7.49,3.41 1.7,1.68 2.54,3.95 2.54,6.82 0,2.5 -0.59,4.61 -1.78,6.34 -1.18,1.73 -2.83,3.04 -4.94,3.93 -2.1,0.89 -4.54,1.34 -7.31,1.34zm35.18 0c-2.64,0 -5.05,-0.46 -7.24,-1.36 -2.19,-0.91 -4.09,-2.18 -5.71,-3.81 -1.61,-1.63 -2.85,-3.54 -3.73,-5.73 -0.87,-2.19 -1.3,-4.57 -1.3,-7.14 0,-2.57 0.43,-4.95 1.3,-7.14 0.88,-2.19 2.12,-4.1 3.73,-5.73 1.62,-1.63 3.52,-2.89 5.71,-3.8 2.19,-0.91 4.6,-1.36 7.24,-1.36 2.63,0 5.05,0.45 7.24,1.36 2.19,0.91 4.09,2.17 5.7,3.8 1.62,1.63 2.86,3.54 3.73,5.73 0.88,2.19 1.31,4.57 1.31,7.14 0,2.57 -0.43,4.95 -1.31,7.14 -0.87,2.19 -2.11,4.1 -3.73,5.73 -1.61,1.63 -3.51,2.9 -5.7,3.81 -2.19,0.9 -4.61,1.36 -7.24,1.36zm0 -8.3c1.68,0 3.15,-0.41 4.42,-1.21 1.27,-0.81 2.26,-1.95 2.96,-3.41 0.71,-1.47 1.07,-3.17 1.07,-5.12 0,-1.94 -0.36,-3.64 -1.07,-5.11 -0.7,-1.47 -1.69,-2.6 -2.96,-3.41 -1.27,-0.81 -2.74,-1.21 -4.42,-1.21 -1.65,0 -3.11,0.4 -4.4,1.21 -1.28,0.81 -2.28,1.94 -2.99,3.41 -0.71,1.47 -1.06,3.17 -1.06,5.11 0,1.95 0.35,3.65 1.06,5.12 0.71,1.46 1.71,2.6 2.99,3.41 1.29,0.8 2.75,1.21 4.4,1.21zm48.12 -0.65l0 8.11 -25.4 0 0 -34.39 9.39 0 0 26.28 16.01 0zm14.27 8.11l-9.38 0 0 -34.39 9.38 0 0 34.39zm4.75 -17.2c0,-3.49 0.71,-6.59 2.15,-9.31 1.43,-2.72 3.44,-4.85 6.02,-6.4 2.59,-1.55 5.58,-2.32 8.97,-2.32 3.19,0 5.89,0.59 8.1,1.78 2.21,1.19 3.95,2.77 5.24,4.77 1.28,1.99 2.11,4.19 2.47,6.59l-9.69 0c-0.26,-1.41 -0.92,-2.58 -1.97,-3.48 -1.05,-0.91 -2.47,-1.36 -4.25,-1.36 -2.27,0 -4.09,0.87 -5.46,2.62 -1.37,1.74 -2.05,4.12 -2.05,7.11 0,2.93 0.68,5.29 2.05,7.07 1.37,1.78 3.19,2.67 5.46,2.67 1.78,0 3.22,-0.42 4.32,-1.26 1.11,-0.84 1.77,-1.96 2,-3.34l9.59 0c-0.36,2.37 -1.19,4.54 -2.47,6.5 -1.29,1.96 -3.03,3.51 -5.24,4.67 -2.21,1.15 -4.91,1.73 -8.1,1.73 -3.39,0 -6.38,-0.78 -8.97,-2.33 -2.58,-1.55 -4.59,-3.68 -6.02,-6.39 -1.44,-2.72 -2.15,-5.83 -2.15,-9.32zm46.98 17.2l-9.39 0 0 -34.39 9.39 0 0 34.39zm24.7 0l-9.39 0 0 -26.29 -10.42 0 0 -8.1 30.23 0 0 8.1 -10.42 0 0 26.29zm33 0l-1.97 -5.93 -12.01 0 -1.98 5.93 -9.43 0 12.69 -34.39 9.94 0 12.69 34.39 -9.93 0zm-11.36 -13.89l6.77 0 -3.36 -10.32 -3.41 10.32zm24.95 13.89l0 -34.39 15.36 0c2.7,0 5.06,0.49 7.07,1.48 2.01,0.99 3.57,2.37 4.69,4.15 1.12,1.78 1.68,3.86 1.68,6.23 0,2.3 -0.53,4.34 -1.58,6.1 -1.06,1.76 -2.52,3.14 -4.4,4.12l8.25 12.31 -10.52 0 -6.82 -10.58 -4.35 0 0 10.58 -9.38 0zm9.38 -18.43l4.55 0c1.88,0 3.24,-0.36 4.08,-1.06 0.84,-0.71 1.25,-1.76 1.25,-3.14 0,-1.35 -0.41,-2.34 -1.25,-2.97 -0.84,-0.62 -2.2,-0.93 -4.08,-0.93l-4.55 0 0 8.1zm-223.52 52.06c0,-3.49 0.72,-6.59 2.15,-9.31 1.43,-2.72 3.44,-4.85 6.03,-6.4 2.58,-1.55 5.57,-2.32 8.96,-2.32 3.2,0 5.9,0.59 8.11,1.78 2.2,1.18 3.95,2.77 5.23,4.77 1.29,1.99 2.11,4.19 2.47,6.59l-9.68 0c-0.27,-1.42 -0.92,-2.58 -1.98,-3.48 -1.05,-0.91 -2.47,-1.36 -4.25,-1.36 -2.27,0 -4.09,0.87 -5.46,2.62 -1.36,1.74 -2.05,4.11 -2.05,7.11 0,2.93 0.69,5.29 2.05,7.07 1.37,1.77 3.19,2.66 5.46,2.66 1.78,0 3.22,-0.42 4.33,-1.26 1.1,-0.84 1.77,-1.95 2,-3.33l9.58 0c-0.36,2.37 -1.18,4.54 -2.47,6.5 -1.28,1.96 -3.03,3.51 -5.23,4.66 -2.21,1.16 -4.91,1.73 -8.11,1.73 -3.39,0 -6.38,-0.77 -8.96,-2.32 -2.59,-1.55 -4.6,-3.68 -6.03,-6.4 -1.43,-2.71 -2.15,-5.82 -2.15,-9.31zm37.6 17.19l0 -34.38 15.36 0c2.7,0 5.06,0.49 7.06,1.48 2.01,0.99 3.58,2.37 4.7,4.15 1.12,1.78 1.68,3.85 1.68,6.23 0,2.3 -0.53,4.33 -1.58,6.1 -1.06,1.76 -2.52,3.13 -4.4,4.12l8.25 12.3 -10.52 0 -6.82 -10.57 -4.35 0 0 10.57 -9.38 0zm9.38 -18.42l4.55 0c1.87,0 3.23,-0.36 4.07,-1.07 0.84,-0.7 1.26,-1.75 1.26,-3.13 0,-1.35 -0.42,-2.34 -1.26,-2.97 -0.84,-0.62 -2.2,-0.94 -4.07,-0.94l-4.55 0 0 8.11zm25.2 18.42l0 -34.38 25.98 0 0 8 -16.64 0 0 5.09 16 0 0 8 -16 0 0 5.29 16.89 0 0 8 -26.23 0zm16.79 -37.69l-8.34 0 4.34 -7.61 9.39 0 -5.39 7.61zm14.97 37.69l0 -34.38 13.79 0c3.69,0 6.86,0.71 9.51,2.12 2.65,1.42 4.68,3.41 6.1,5.98 1.41,2.57 2.12,5.6 2.12,9.09 0,3.46 -0.71,6.48 -2.12,9.07 -1.42,2.58 -3.45,4.58 -6.1,6 -2.65,1.42 -5.82,2.12 -9.51,2.12l-13.79 0zm9.39 -8.1l3.8 0c2.84,0 5.01,-0.79 6.53,-2.37 1.51,-1.58 2.27,-3.82 2.27,-6.72 0,-2.93 -0.76,-5.18 -2.27,-6.74 -1.52,-1.57 -3.69,-2.35 -6.53,-2.35l-3.8 0 0 18.18zm36.26 8.1l-9.38 0 0 -34.38 9.38 0 0 34.38zm24.7 0l-9.38 0 0 -26.28 -10.43 0 0 -8.1 30.24 0 0 8.1 -10.43 0 0 26.28zm30.63 0.84c-2.63,0 -5.04,-0.45 -7.23,-1.36 -2.19,-0.9 -4.1,-2.17 -5.71,-3.8 -1.61,-1.63 -2.86,-3.54 -3.73,-5.73 -0.87,-2.19 -1.31,-4.57 -1.31,-7.14 0,-2.57 0.44,-4.95 1.31,-7.14 0.87,-2.19 2.12,-4.1 3.73,-5.73 1.61,-1.63 3.52,-2.9 5.71,-3.8 2.19,-0.91 4.6,-1.36 7.23,-1.36 2.64,0 5.05,0.45 7.24,1.36 2.19,0.9 4.09,2.17 5.71,3.8 1.61,1.63 2.85,3.54 3.73,5.73 0.87,2.19 1.31,4.57 1.31,7.14 0,2.57 -0.44,4.95 -1.31,7.14 -0.88,2.19 -2.12,4.1 -3.73,5.73 -1.62,1.63 -3.52,2.9 -5.71,3.8 -2.19,0.91 -4.6,1.36 -7.24,1.36zm0 -8.3c1.68,0 3.16,-0.4 4.43,-1.21 1.26,-0.8 2.25,-1.94 2.96,-3.41 0.71,-1.46 1.06,-3.17 1.06,-5.11 0,-1.94 -0.35,-3.65 -1.06,-5.11 -0.71,-1.47 -1.7,-2.6 -2.96,-3.41 -1.27,-0.81 -2.75,-1.21 -4.43,-1.21 -1.64,0 -3.11,0.4 -4.39,1.21 -1.29,0.81 -2.28,1.94 -2.99,3.41 -0.71,1.46 -1.06,3.17 -1.06,5.11 0,1.94 0.35,3.65 1.06,5.11 0.71,1.47 1.7,2.61 2.99,3.41 1.28,0.81 2.75,1.21 4.39,1.21z"/>
   <g>
    <path class="fil3" d="M60.94 8.6c29.58,0 53.56,23.98 53.56,53.56 0,29.58 -23.98,53.56 -53.56,53.56 -8.55,0 -16.62,-2 -23.79,-5.57l-28.61 5.58 5.47 -27.75c-4.22,-7.66 -6.63,-16.46 -6.63,-25.82 0,-29.58 23.98,-53.56 53.56,-53.56z"/>
    <path class="fil4" d="M60.94 17.03c24.92,0 45.13,20.2 45.13,45.13 0,24.92 -20.21,45.13 -45.13,45.13 -8.71,0 -16.84,-2.47 -23.74,-6.74l-18.27 4.75 5.91 -16.05c-5.67,-7.54 -9.03,-16.93 -9.03,-27.09 0,-24.93 20.2,-45.13 45.13,-45.13z"/>
    <path class="fil5" d="M54.41 50.56c3.14,-3.65 -0.28,-8.41 -2.36,-11.67 -1.19,-1.89 -2.93,-4.56 -5.38,-4.91 -2.34,-0.25 -4.45,2.35 -5.98,3.76 -3.7,3.37 -5.76,7.75 -5.98,12.76l-0.05 0.63c0.36,3.02 0.71,5.85 1.76,8.69 0.98,2.69 2.32,5.15 3.86,7.53 3.31,5 7.13,9.85 11.68,13.85 4.43,3.94 9.41,7.47 15.33,8.74 5.52,1.12 10.93,-0.05 15.3,-3.64 1.58,-1.29 4.49,-3.17 4.61,-5.41 0.13,-2.26 -1.67,-4.06 -3.2,-5.42 -3.29,-2.95 -8.15,-7.85 -12.63,-4.27 -1.74,1.43 -3.59,4.07 -5.93,4.45 -2.31,0.38 -4.57,-1.29 -6.24,-2.63 -3.74,-3.05 -7.41,-7.2 -9.62,-11.54 -0.93,-1.94 -1.76,-4.43 -0.39,-6.36 1.39,-1.88 3.72,-2.79 5.22,-4.56z"/>
   </g>
  </g>
 </g>
</svg>
