<?xml version="1.0" encoding="UTF-8"?>
<!DOCTYPE svg PUBLIC "-//W3C//DTD SVG 1.1//EN" "http://www.w3.org/Graphics/SVG/1.1/DTD/svg11.dtd">
<!-- Creator: CorelDRAW 2020 (64-Bit) -->
<svg xmlns="http://www.w3.org/2000/svg" xml:space="preserve" width="67px" height="81px" version="1.1" style="shape-rendering:geometricPrecision; text-rendering:geometricPrecision; image-rendering:optimizeQuality; fill-rule:evenodd; clip-rule:evenodd"
viewBox="0 0 67 80.49"
 xmlns:xlink="http://www.w3.org/1999/xlink"
 xmlns:xodm="http://www.corel.com/coreldraw/odm/2003">
 <defs>
  <style type="text/css">
   <![CDATA[
    .fil0 {fill:#0F5395}
   ]]>
  </style>
 </defs>
 <g id="Capa_x0020_1">
  <metadata id="CorelCorpID_0Corel-Layer"/>
  <g id="_3153445078448">
   <path class="fil0" d="M36.99 14.18c3.84,0.47 7.48,1.58 10.81,3.24l3.53 -5.42 6.82 4.44 -3.55 5.45c7.23,6.15 11.82,15.31 11.82,25.55 0,18.5 -15,33.5 -33.5,33.5 -18.5,0 -33.5,-15 -33.5,-33.5 0,-17.13 12.85,-31.25 29.43,-33.26l0 -6.05 -10.23 0 0 -7.68 28.6 0 0 7.68 -10.23 0 0 6.05zm-4.07 8.6c13.62,0 24.66,11.04 24.66,24.66 0,13.62 -11.04,24.66 -24.66,24.66 -13.62,0 -24.66,-11.04 -24.66,-24.66 0,-13.62 11.04,-24.66 24.66,-24.66z"/>
   <path class="fil0" d="M36.44 44.02l0 -15.95 -7.04 0 0 15.95 0 1.23 0 2c0,1.77 1.45,3.23 3.23,3.23l18.98 0 0 -6.46 -15.17 0z"/>
  </g>
 </g>
</svg>
