<?xml version="1.0" encoding="UTF-8"?>
<!DOCTYPE svg PUBLIC "-//W3C//DTD SVG 1.1//EN" "http://www.w3.org/Graphics/SVG/1.1/DTD/svg11.dtd">
<!-- Creator: CorelDRAW 2020 (64-Bit) -->
<svg xmlns="http://www.w3.org/2000/svg" xml:space="preserve" width="234px" height="121px" version="1.1" style="shape-rendering:geometricPrecision; text-rendering:geometricPrecision; image-rendering:optimizeQuality; fill-rule:evenodd; clip-rule:evenodd"
viewBox="0 0 234 120.93"
 xmlns:xlink="http://www.w3.org/1999/xlink"
 xmlns:xodm="http://www.corel.com/coreldraw/odm/2003">
 <defs>
  <style type="text/css">
   <![CDATA[
    .fil1 {fill:#90C03F}
    .fil0 {fill:#A7C95E}
    .fil2 {fill:#FEFEFE;fill-rule:nonzero}
    .fil7 {fill:#FFF212;fill-rule:nonzero}
    .fil3 {fill:#0F5395;fill-rule:nonzero}
    .fil4 {fill:#90C03F;fill-rule:nonzero}
    .fil6 {fill:#E5143A;fill-rule:nonzero}
    .fil5 {fill:#E5143A;fill-rule:nonzero}
   ]]>
  </style>
 </defs>
 <g id="Capa_x0020_1">
  <metadata id="CorelCorpID_0Corel-Layer"/>
  <g id="_3154054368752">
   <g>
    <path class="fil0" d="M125.81 0c15.15,0 27.44,12.28 27.44,27.44 0,15.15 -12.29,27.43 -27.44,27.43 -4.85,0 -9.4,-1.25 -13.35,-3.46l-15.52 4.97 5.53 -14.51c-2.6,-4.19 -4.1,-9.14 -4.1,-14.43 0,-15.16 12.28,-27.44 27.44,-27.44z"/>
    <path class="fil1" d="M103.78 49.9l9.13 -2.92 1.54 0.87c3.49,1.94 7.37,2.94 11.36,2.94 12.9,0 23.35,-10.46 23.35,-23.35 0,-12.9 -10.45,-23.36 -23.35,-23.36 -12.9,0 -23.36,10.46 -23.36,23.36 0,4.35 1.2,8.58 3.5,12.28l1.06 1.72 -3.23 8.46z"/>
    <path class="fil2" d="M123.19 46.62l4.93 0 0 -3.14c4.27,-0.72 6.51,-3.45 6.51,-7.48 0,-3.59 -1.7,-6.05 -6.62,-9.28 -4.05,-2.64 -5.15,-4.21 -5.15,-6.27 0,-1.84 1.1,-2.69 3.01,-2.69 1.92,0 3.01,0.85 3.01,2.78l0 1.21 5.7 0 0 -0.9c0,-3.94 -2.19,-6.63 -6.46,-7.34l0 -2.74 -4.93 0 0 2.74c-4.21,0.76 -6.35,3.45 -6.35,7.25 0,3.41 1.7,5.92 6.63,9.1 4.05,2.6 5.14,4.21 5.14,6.45 0,2.02 -1.2,2.82 -3.12,2.82 -1.92,0 -3.12,-0.8 -3.12,-2.73l0 -2.37 -5.69 0 0 2.06c0,3.94 2.19,6.67 6.51,7.39l0 3.14z"/>
   </g>
   <path class="fil3" d="M0 97.23l0 -30.9 12.61 0c3.79,0 6.74,0.9 8.86,2.71 2.11,1.8 3.17,4.25 3.17,7.32 0,2.22 -0.57,4.12 -1.71,5.69 -1.14,1.57 -2.66,2.74 -4.55,3.5l7.64 11.68 -7.02 0 -6.79 -10.7 -6.17 0 0 10.7 -6.04 0zm6.04 -15.94l5.77 0c2.31,0 4,-0.42 5.08,-1.26 1.08,-0.85 1.62,-2.08 1.62,-3.71 0,-1.66 -0.54,-2.86 -1.62,-3.62 -1.08,-0.75 -2.77,-1.13 -5.08,-1.13l-5.77 0 0 9.72zm30.1 16.61c-2.4,0 -4.31,-0.66 -5.75,-1.98 -1.44,-1.32 -2.15,-3.07 -2.15,-5.26 0,-2.37 0.85,-4.22 2.57,-5.55 1.72,-1.33 4.12,-2 7.19,-2l4.66 0 0 -0.84c0,-1.42 -0.38,-2.45 -1.15,-3.09 -0.77,-0.63 -1.8,-0.95 -3.11,-0.95 -1.12,0 -2.04,0.22 -2.75,0.67 -0.71,0.44 -1.15,0.96 -1.33,1.55l-5.42 0c0.39,-1.95 1.42,-3.58 3.11,-4.88 1.69,-1.31 3.88,-1.96 6.57,-1.96 2.99,0 5.34,0.75 7.06,2.24 1.72,1.5 2.57,3.83 2.57,7l0 14.38 -5.19 0 0 -2.84c-0.74,1.21 -1.74,2.1 -3,2.66 -1.26,0.57 -2.55,0.85 -3.88,0.85zm1.42 -4.53c0.8,0 1.59,-0.18 2.37,-0.54 0.79,-0.35 1.44,-0.88 1.96,-1.59 0.52,-0.71 0.77,-1.59 0.77,-2.62l0 -1.47 -4.39 0c-1.45,0 -2.57,0.28 -3.35,0.82 -0.79,0.55 -1.18,1.33 -1.18,2.34 0,1 0.36,1.76 1.07,2.28 0.71,0.52 1.63,0.78 2.75,0.78zm16.34 12.96l0 -32.05 5.41 0 0 3.02c0.77,-1.16 1.75,-2.06 2.93,-2.71 1.19,-0.65 2.56,-0.98 4.13,-0.98 1.99,0 3.74,0.52 5.26,1.56 1.53,1.03 2.73,2.46 3.6,4.28 0.87,1.82 1.31,3.93 1.31,6.33 0,2.36 -0.44,4.47 -1.31,6.3 -0.87,1.84 -2.07,3.26 -3.6,4.28 -1.52,1.03 -3.27,1.54 -5.26,1.54 -1.48,0 -2.8,-0.31 -3.95,-0.91 -1.15,-0.61 -2.13,-1.46 -2.93,-2.56l0 11.9 -5.59 0zm11.14 -13.45c1.69,0 3.07,-0.64 4.15,-1.93 1.08,-1.29 1.62,-3.01 1.62,-5.17 0,-2.19 -0.54,-3.93 -1.62,-5.22 -1.08,-1.29 -2.46,-1.93 -4.15,-1.93 -1.72,0 -3.12,0.65 -4.2,1.95 -1.08,1.3 -1.62,3.04 -1.62,5.2 0,2.16 0.54,3.88 1.62,5.17 1.08,1.29 2.48,1.93 4.2,1.93zm18.87 -21.27c-0.95,0 -1.77,-0.34 -2.47,-1.02 -0.69,-0.68 -1.04,-1.51 -1.04,-2.48 0,-0.98 0.35,-1.81 1.04,-2.49 0.7,-0.68 1.52,-1.02 2.47,-1.02 0.95,0 1.77,0.34 2.46,1.02 0.7,0.68 1.05,1.51 1.05,2.49 0,0.97 -0.35,1.8 -1.05,2.48 -0.69,0.68 -1.51,1.02 -2.46,1.02zm-2.84 25.62l0 -22.95 5.64 0 0 22.95 -5.64 0z"/>
   <path class="fil4" d="M101.83 97.9c-2.28,0 -4.27,-0.52 -5.97,-1.56 -1.71,-1.03 -3.02,-2.47 -3.96,-4.3 -0.93,-1.84 -1.39,-3.94 -1.39,-6.31 0,-2.37 0.46,-4.46 1.39,-6.28 0.94,-1.82 2.25,-3.25 3.96,-4.28 1.7,-1.04 3.69,-1.56 5.97,-1.56 1.89,0 3.54,0.37 4.95,1.11 1.4,0.74 2.53,1.73 3.39,2.98 0.86,1.24 1.39,2.63 1.6,4.17l-5.77 0c-0.18,-0.95 -0.61,-1.72 -1.31,-2.33 -0.69,-0.61 -1.68,-0.91 -2.95,-0.91 -1.63,0 -2.95,0.64 -3.95,1.93 -1.01,1.29 -1.51,3.01 -1.51,5.17 0,2.19 0.5,3.93 1.51,5.22 1,1.29 2.32,1.93 3.95,1.93 1.27,0 2.27,-0.28 2.99,-0.84 0.73,-0.57 1.18,-1.32 1.36,-2.27l5.68 0c-0.21,1.54 -0.74,2.92 -1.6,4.13 -0.86,1.21 -1.99,2.18 -3.39,2.91 -1.41,0.72 -3.06,1.09 -4.95,1.09zm19.93 -11.99l0 11.32 -5.64 0 0 -22.95 5.42 0 0 3.82c0.71,-1.28 1.62,-2.26 2.73,-2.96 1.11,-0.69 2.36,-1.04 3.75,-1.04l0.89 0 0 5.33 -1.07 0c-1.71,0 -3.16,0.56 -4.33,1.69 -1.16,1.12 -1.75,2.72 -1.75,4.79zm20.73 11.99c-2.36,0 -4.4,-0.5 -6.1,-1.49 -1.7,-0.99 -3.01,-2.41 -3.93,-4.24 -0.92,-1.84 -1.38,-4.01 -1.38,-6.53 0,-2.31 0.45,-4.36 1.36,-6.17 0.9,-1.8 2.19,-3.23 3.88,-4.28 1.69,-1.05 3.7,-1.58 6.04,-1.58 3.37,0 5.96,1.08 7.77,3.24 1.8,2.16 2.71,5.05 2.71,8.66l0 2.04 -16.07 0c0.47,3.82 2.39,5.73 5.77,5.73 1.09,0 2,-0.18 2.73,-0.53 0.72,-0.36 1.22,-0.82 1.49,-1.38l5.68 0c-0.56,1.98 -1.73,3.57 -3.49,4.75 -1.76,1.19 -3.91,1.78 -6.46,1.78zm-0.17 -19.67c-1.54,0 -2.79,0.45 -3.73,1.35 -0.95,0.91 -1.56,2.2 -1.82,3.89l10.56 0c-0.06,-1.57 -0.51,-2.84 -1.35,-3.8 -0.85,-0.96 -2.07,-1.44 -3.66,-1.44zm2.04 -7.1l-5.28 0 3.37 -6.97 5.9 0 -3.99 6.97zm21.93 26.77c-1.98,0 -3.74,-0.52 -5.26,-1.56 -1.52,-1.03 -2.72,-2.47 -3.6,-4.3 -0.87,-1.84 -1.31,-3.94 -1.31,-6.31 0,-2.4 0.44,-4.5 1.31,-6.32 0.88,-1.82 2.08,-3.25 3.6,-4.27 1.52,-1.02 3.28,-1.53 5.26,-1.53 1.48,0 2.8,0.31 3.95,0.91 1.16,0.61 2.13,1.46 2.93,2.55l0 -12.03 5.59 0 0 32.19 -5.41 0 0 -3.02c-0.77,1.16 -1.75,2.06 -2.93,2.71 -1.19,0.65 -2.56,0.98 -4.13,0.98zm1.33 -5.02c1.72,0 3.12,-0.65 4.2,-1.95 1.08,-1.31 1.62,-3.04 1.62,-5.2 0,-2.16 -0.54,-3.88 -1.62,-5.17 -1.08,-1.29 -2.48,-1.93 -4.2,-1.93 -1.69,0 -3.07,0.64 -4.15,1.91 -1.08,1.27 -1.62,3 -1.62,5.19 0,2.16 0.54,3.89 1.62,5.2 1.08,1.3 2.46,1.95 4.15,1.95zm19.85 -21.27c-0.95,0 -1.77,-0.34 -2.47,-1.02 -0.69,-0.68 -1.04,-1.51 -1.04,-2.48 0,-0.98 0.35,-1.81 1.04,-2.49 0.7,-0.68 1.52,-1.02 2.47,-1.02 0.94,0 1.76,0.34 2.46,1.02 0.7,0.68 1.04,1.51 1.04,2.49 0,0.97 -0.34,1.8 -1.04,2.48 -0.7,0.68 -1.52,1.02 -2.46,1.02zm-2.84 25.62l0 -22.95 5.63 0 0 22.95 -5.63 0zm20.33 0.18c-2.31,0 -4.09,-0.63 -5.35,-1.89 -1.26,-1.26 -1.89,-3.1 -1.89,-5.53l0 -10.83 -3.73 0 0 -4.88 3.73 0 0 -6.97c1.96,-0.09 3.83,-0.4 5.64,-0.93l0 7.9 4.53 0 0 4.88 -4.53 0 0 10.21c0,1.04 0.25,1.82 0.76,2.36 0.5,0.53 1.21,0.79 2.13,0.79l1.64 0 0 4.89 -2.93 0zm17.54 0.49c-2.25,0 -4.25,-0.52 -5.98,-1.56 -1.73,-1.03 -3.08,-2.47 -4.06,-4.3 -0.98,-1.84 -1.46,-3.94 -1.46,-6.31 0,-2.4 0.48,-4.5 1.46,-6.32 0.98,-1.82 2.33,-3.25 4.06,-4.27 1.73,-1.02 3.73,-1.53 5.98,-1.53 2.24,0 4.23,0.51 5.97,1.53 1.73,1.02 3.08,2.45 4.06,4.27 0.98,1.82 1.46,3.92 1.46,6.32 0,2.37 -0.48,4.47 -1.46,6.31 -0.98,1.83 -2.33,3.27 -4.06,4.3 -1.74,1.04 -3.73,1.56 -5.97,1.56zm0 -5.02c1.71,0 3.1,-0.65 4.17,-1.95 1.06,-1.31 1.6,-3.04 1.6,-5.2 0,-2.19 -0.54,-3.92 -1.6,-5.19 -1.07,-1.27 -2.46,-1.91 -4.17,-1.91 -1.72,0 -3.11,0.64 -4.18,1.91 -1.06,1.27 -1.6,3 -1.6,5.19 0,2.16 0.54,3.89 1.6,5.2 1.07,1.3 2.46,1.95 4.18,1.95z"/>
   <g>
    <path class="fil5" d="M131.62 120.93c-1.13,0 -2.1,-0.24 -2.92,-0.71 -0.81,-0.48 -1.44,-1.15 -1.87,-2.03 -0.44,-0.88 -0.66,-1.92 -0.66,-3.12 0,-1.11 0.21,-2.09 0.64,-2.96 0.44,-0.86 1.06,-1.54 1.86,-2.05 0.81,-0.5 1.77,-0.75 2.89,-0.75 1.62,0 2.85,0.52 3.72,1.55 0.86,1.03 1.29,2.41 1.29,4.14l0 0.98 -7.68 0c0.22,1.83 1.14,2.74 2.76,2.74 0.52,0 0.96,-0.09 1.3,-0.26 0.35,-0.17 0.59,-0.39 0.71,-0.65l2.72 0c-0.27,0.94 -0.82,1.7 -1.66,2.27 -0.85,0.56 -1.88,0.85 -3.1,0.85zm-0.08 -9.41c-0.74,0 -1.33,0.21 -1.78,0.65 -0.46,0.43 -0.75,1.05 -0.87,1.85l5.05 0c-0.03,-0.75 -0.24,-1.35 -0.65,-1.81 -0.4,-0.46 -0.98,-0.69 -1.75,-0.69zm9.94 2.63l0 6.46 -2.7 0 0 -10.98 2.59 0 0 1.29c0.8,-1.07 1.9,-1.61 3.32,-1.61 1.19,0 2.13,0.41 2.82,1.23 0.7,0.82 1.04,1.91 1.04,3.25l0 6.82 -2.69 0 0 -6.42c0,-0.75 -0.18,-1.34 -0.53,-1.79 -0.34,-0.45 -0.87,-0.67 -1.58,-0.67 -0.63,0 -1.17,0.22 -1.61,0.65 -0.44,0.43 -0.66,1.02 -0.66,1.77zm19.41 6.78c-1.13,0 -2.1,-0.24 -2.92,-0.71 -0.81,-0.48 -1.44,-1.15 -1.88,-2.03 -0.44,-0.88 -0.66,-1.92 -0.66,-3.12 0,-1.11 0.22,-2.09 0.65,-2.96 0.44,-0.86 1.05,-1.54 1.86,-2.05 0.81,-0.5 1.77,-0.75 2.89,-0.75 1.61,0 2.85,0.52 3.72,1.55 0.86,1.03 1.29,2.41 1.29,4.14l0 0.98 -7.69 0c0.23,1.83 1.15,2.74 2.76,2.74 0.53,0 0.96,-0.09 1.31,-0.26 0.35,-0.17 0.59,-0.39 0.71,-0.65l2.72 0c-0.27,0.94 -0.82,1.7 -1.67,2.27 -0.84,0.56 -1.87,0.85 -3.09,0.85zm-0.08 -9.41c-0.74,0 -1.33,0.21 -1.79,0.65 -0.45,0.43 -0.74,1.05 -0.87,1.85l5.06 0c-0.03,-0.75 -0.25,-1.35 -0.65,-1.81 -0.4,-0.46 -0.99,-0.69 -1.75,-0.69zm6.22 -1.89l1.79 0 0 -0.64c0,-1.17 0.32,-2.1 0.98,-2.77 0.66,-0.67 1.57,-1.01 2.73,-1.01l1.15 0 0 2.34 -0.59 0c-0.51,0 -0.9,0.15 -1.17,0.44 -0.27,0.3 -0.41,0.7 -0.41,1.19l0 0.45 2.17 0 0 2.33 -2.17 0 0 8.65 -2.69 0 0 -8.65 -1.79 0 0 -2.33zm13.17 11.3c-1.13,0 -2.11,-0.24 -2.92,-0.71 -0.81,-0.48 -1.44,-1.15 -1.88,-2.03 -0.44,-0.88 -0.66,-1.92 -0.66,-3.12 0,-1.11 0.22,-2.09 0.65,-2.96 0.43,-0.86 1.05,-1.54 1.86,-2.05 0.8,-0.5 1.77,-0.75 2.89,-0.75 1.61,0 2.85,0.52 3.71,1.55 0.87,1.03 1.3,2.41 1.3,4.14l0 0.98 -7.69 0c0.23,1.83 1.15,2.74 2.76,2.74 0.53,0 0.96,-0.09 1.31,-0.26 0.34,-0.17 0.58,-0.39 0.71,-0.65l2.72 0c-0.27,0.94 -0.83,1.7 -1.67,2.27 -0.84,0.56 -1.87,0.85 -3.09,0.85zm-0.08 -9.41c-0.74,0 -1.34,0.21 -1.79,0.65 -0.45,0.43 -0.74,1.05 -0.87,1.85l5.06 0c-0.03,-0.75 -0.25,-1.35 -0.65,-1.81 -0.41,-0.46 -0.99,-0.69 -1.75,-0.69zm12.02 9.41c-1.09,0 -2.05,-0.25 -2.86,-0.75 -0.81,-0.49 -1.44,-1.18 -1.89,-2.06 -0.45,-0.87 -0.67,-1.88 -0.67,-3.01 0,-1.13 0.22,-2.14 0.67,-3.01 0.45,-0.87 1.08,-1.55 1.89,-2.05 0.81,-0.49 1.77,-0.74 2.86,-0.74 0.9,0 1.69,0.18 2.37,0.53 0.67,0.36 1.21,0.83 1.62,1.42 0.41,0.6 0.66,1.26 0.76,2l-2.76 0c-0.08,-0.45 -0.29,-0.82 -0.62,-1.11 -0.34,-0.29 -0.81,-0.44 -1.42,-0.44 -0.77,0 -1.4,0.31 -1.89,0.92 -0.48,0.62 -0.72,1.44 -0.72,2.48 0,1.05 0.24,1.88 0.72,2.49 0.49,0.62 1.12,0.93 1.89,0.93 0.61,0 1.09,-0.14 1.44,-0.41 0.34,-0.27 0.56,-0.63 0.65,-1.08l2.71 0c-0.1,0.74 -0.35,1.4 -0.76,1.98 -0.41,0.58 -0.95,1.04 -1.62,1.39 -0.68,0.34 -1.47,0.52 -2.37,0.52zm11.04 -0.24c-1.1,0 -1.96,-0.3 -2.56,-0.9 -0.6,-0.6 -0.9,-1.48 -0.9,-2.64l0 -5.19 -1.78 0 0 -2.33 1.78 0 0 -3.34c0.93,-0.04 1.83,-0.19 2.7,-0.44l0 3.78 2.16 0 0 2.33 -2.16 0 0 4.89c0,0.5 0.12,0.87 0.36,1.12 0.24,0.26 0.58,0.39 1.02,0.39l0.78 0 0 2.33 -1.4 0zm4.89 -12.34c-0.46,0 -0.85,-0.16 -1.18,-0.48 -0.33,-0.33 -0.5,-0.73 -0.5,-1.19 0,-0.47 0.17,-0.87 0.5,-1.19 0.33,-0.33 0.72,-0.49 1.18,-0.49 0.45,0 0.84,0.16 1.18,0.49 0.33,0.32 0.49,0.72 0.49,1.19 0,0.46 -0.16,0.86 -0.49,1.19 -0.34,0.32 -0.73,0.48 -1.18,0.48zm-1.36 12.26l0 -10.98 2.69 0 0 10.98 -2.69 0zm11.4 0l-2.82 0 -4.27 -10.98 3.08 0 2.7 7.9 2.69 -7.9 2.91 0 -4.29 10.98zm10.39 0.32c-1.08,0 -2.03,-0.25 -2.86,-0.75 -0.83,-0.49 -1.47,-1.18 -1.94,-2.06 -0.47,-0.87 -0.7,-1.88 -0.7,-3.01 0,-1.15 0.23,-2.16 0.7,-3.03 0.47,-0.87 1.11,-1.55 1.94,-2.04 0.83,-0.49 1.78,-0.73 2.86,-0.73 1.07,0 2.03,0.24 2.86,0.73 0.82,0.49 1.47,1.17 1.94,2.04 0.47,0.87 0.7,1.88 0.7,3.03 0,1.13 -0.23,2.14 -0.7,3.01 -0.47,0.88 -1.12,1.57 -1.94,2.06 -0.83,0.5 -1.79,0.75 -2.86,0.75zm0 -2.4c0.82,0 1.49,-0.31 2,-0.94 0.5,-0.62 0.76,-1.45 0.76,-2.48 0,-1.05 -0.26,-1.88 -0.76,-2.49 -0.51,-0.61 -1.18,-0.91 -2,-0.91 -0.82,0 -1.49,0.3 -2,0.91 -0.51,0.61 -0.76,1.44 -0.76,2.49 0,1.03 0.25,1.86 0.76,2.48 0.51,0.63 1.18,0.94 2,0.94z"/>
    <g>
     <path class="fil6" d="M75.43 111.2c0.75,0.34 1.34,0.88 1.77,1.61 0.44,0.73 0.66,1.54 0.66,2.42 0,1.11 -0.25,2.07 -0.73,2.86 -0.49,0.8 -1.19,1.41 -2.12,1.83 -0.92,0.41 -2.02,0.62 -3.31,0.62l-6.83 0c-0.15,0 -0.26,-0.04 -0.35,-0.12 -0.08,-0.08 -0.13,-0.19 -0.13,-0.34l0 -16.7c0,-0.14 0.05,-0.26 0.13,-0.34 0.09,-0.08 0.2,-0.12 0.35,-0.12l6.33 0c1.23,0 2.28,0.2 3.16,0.6 0.87,0.41 1.54,0.99 2,1.75 0.47,0.77 0.7,1.68 0.7,2.74 0,0.64 -0.15,1.26 -0.44,1.83 -0.3,0.58 -0.69,1.04 -1.19,1.36zm-2.74 -2.88c0,-0.45 -0.14,-0.82 -0.41,-1.08 -0.28,-0.27 -0.66,-0.4 -1.13,-0.4l-2.38 0 0 2.98 2.38 0c0.47,0 0.85,-0.13 1.13,-0.41 0.27,-0.26 0.41,-0.63 0.41,-1.09zm-1.05 8.3c0.57,0 1.01,-0.16 1.34,-0.49 0.33,-0.32 0.5,-0.76 0.5,-1.31 0,-0.54 -0.17,-0.96 -0.5,-1.27 -0.33,-0.31 -0.77,-0.46 -1.34,-0.46l-2.87 0 0 3.53 2.87 0z"/>
     <path class="fil6" d="M88.75 110.71c0.08,0.07 0.12,0.17 0.12,0.28 0,0.1 -0.03,0.2 -0.1,0.3l-1.43 2.24c-0.08,0.14 -0.2,0.21 -0.35,0.21 -0.08,0 -0.15,-0.02 -0.18,-0.06l-0.08 -0.05c-0.17,-0.16 -0.38,-0.28 -0.63,-0.35 -0.24,-0.08 -0.48,-0.12 -0.71,-0.12 -0.32,0 -0.62,0.08 -0.89,0.23 -0.27,0.15 -0.48,0.36 -0.64,0.63 -0.15,0.26 -0.23,0.55 -0.23,0.87l-0.01 -0.04 0 5.23c0,0.3 -0.14,0.45 -0.42,0.45l-3.16 0c-0.3,0 -0.45,-0.15 -0.45,-0.45l0 -9.64c0,-0.14 0.05,-0.25 0.13,-0.33 0.08,-0.08 0.2,-0.12 0.33,-0.12l2.51 0c0.1,0 0.18,0.02 0.26,0.07 0.08,0.04 0.13,0.1 0.16,0.18l0.25 0.78c0.37,-0.42 0.81,-0.76 1.3,-1.01 0.5,-0.25 1,-0.37 1.5,-0.37 0.56,0 1.08,0.09 1.56,0.27 0.48,0.18 0.87,0.45 1.16,0.8z"/>
     <path class="fil6" d="M94.42 110.2c0.03,0.06 0.05,0.13 0.05,0.21l0 9.71c0,0.28 -0.14,0.42 -0.42,0.42l-3.19 0c-0.14,0 -0.24,-0.04 -0.31,-0.11 -0.07,-0.07 -0.11,-0.17 -0.11,-0.31l0 -6.14 -0.51 0c-0.38,0 -0.69,-0.31 -0.69,-0.69l0 -2.6c0,-0.16 0.05,-0.3 0.14,-0.42 0.12,0.09 0.25,0.17 0.38,0.24 0.65,0.38 1.34,0.56 2.09,0.56 0.75,0 1.45,-0.19 2.1,-0.56 0.17,-0.09 0.32,-0.2 0.47,-0.31z"/>
     <path class="fil7" d="M91.85 110.64c-0.68,0 -1.3,-0.17 -1.87,-0.51 -0.58,-0.32 -1.03,-0.78 -1.36,-1.36 -0.34,-0.57 -0.5,-1.19 -0.5,-1.87 0,-0.68 0.16,-1.3 0.5,-1.87 0.33,-0.57 0.78,-1.03 1.36,-1.36 0.57,-0.34 1.19,-0.51 1.87,-0.51 0.68,0 1.31,0.17 1.88,0.51 0.58,0.33 1.03,0.79 1.36,1.37 0.34,0.57 0.5,1.19 0.5,1.86 0,0.68 -0.16,1.3 -0.5,1.87 -0.33,0.58 -0.78,1.04 -1.36,1.36 -0.57,0.34 -1.2,0.51 -1.88,0.51z"/>
     <path class="fil6" d="M99.74 102.91c0.14,0 0.24,0.03 0.31,0.1 0.07,0.08 0.11,0.18 0.11,0.32l0 13.24 0.17 0c0.19,0 0.31,0.16 0.35,0.35l0.59 2.69c0.11,0.51 -0.43,0.94 -0.95,0.94l-2.19 0c-1.1,0 -2,-0.89 -2,-1.99l0 -1.64 0 -0.01 0 -13.58c0,-0.14 0.04,-0.24 0.12,-0.32 0.07,-0.07 0.18,-0.1 0.3,-0.1l3.19 0z"/>
     <path class="fil6" d="M113.21 109.63c1.09,0 2.03,0.16 2.83,0.5 0.8,0.33 1.41,0.81 1.84,1.44 0.43,0.63 0.65,1.36 0.65,2.22l0 6.27c0,0.15 -0.04,0.27 -0.12,0.36 -0.07,0.09 -0.18,0.13 -0.31,0.13l-2.12 -0.01c-0.07,0 -0.13,-0.02 -0.19,-0.05 -0.06,-0.04 -0.11,-0.09 -0.14,-0.15l-0.36 -0.76c-0.39,0.41 -0.87,0.74 -1.43,0.99 -0.57,0.24 -1.23,0.36 -1.98,0.36 -0.8,0 -1.5,-0.14 -2.09,-0.41 -0.59,-0.27 -1.05,-0.66 -1.37,-1.17 -0.32,-0.52 -0.48,-1.13 -0.48,-1.85 0,-1.02 0.33,-1.78 0.99,-2.29 0.66,-0.51 1.63,-0.76 2.91,-0.77l2.72 -0.01 0 -0.34c0,-0.35 -0.13,-0.64 -0.4,-0.84 -0.27,-0.21 -0.63,-0.32 -1.07,-0.32 -1.04,0 -1.94,0.16 -2.68,0.49 -0.12,0.04 -0.23,0.07 -0.34,0.07 -0.18,0 -0.31,-0.08 -0.38,-0.23l-0.82 -1.86c-0.05,-0.1 -0.07,-0.2 -0.07,-0.29 0,-0.21 0.13,-0.39 0.41,-0.53 0.5,-0.27 1.13,-0.5 1.88,-0.68 0.76,-0.18 1.46,-0.27 2.12,-0.27zm-0.21 8.37c0.47,0 0.85,-0.13 1.13,-0.39 0.29,-0.26 0.43,-0.63 0.43,-1.13l-1.77 0c-0.31,0 -0.55,0.06 -0.7,0.19 -0.15,0.13 -0.23,0.3 -0.23,0.52 0,0.24 0.11,0.43 0.32,0.59 0.21,0.14 0.49,0.22 0.82,0.22z"/>
     <path class="fil6" d="M105.92 102.91c0.13,0 0.23,0.03 0.31,0.1 0.07,0.08 0.11,0.18 0.11,0.32l0 13.24 0.16 0c0.2,0 0.32,0.16 0.36,0.35l0.58 2.69c0.12,0.51 -0.42,0.94 -0.94,0.94l-2.2 0c-1.09,0 -1.99,-0.89 -1.99,-1.99l0 -1.64 0 -0.01 0 -13.58c0,-0.14 0.04,-0.24 0.11,-0.32 0.08,-0.07 0.18,-0.1 0.31,-0.1l3.19 0z"/>
    </g>
   </g>
  </g>
 </g>
</svg>
