<?xml version="1.0" encoding="UTF-8"?>
<!DOCTYPE svg PUBLIC "-//W3C//DTD SVG 1.1//EN" "http://www.w3.org/Graphics/SVG/1.1/DTD/svg11.dtd">
<!-- Creator: CorelDRAW 2020 (64-Bit) -->
<svg xmlns="http://www.w3.org/2000/svg" xml:space="preserve" width="201px" height="67px" version="1.1" style="shape-rendering:geometricPrecision; text-rendering:geometricPrecision; image-rendering:optimizeQuality; fill-rule:evenodd; clip-rule:evenodd"
viewBox="0 0 201 66.9"
 xmlns:xlink="http://www.w3.org/1999/xlink"
 xmlns:xodm="http://www.corel.com/coreldraw/odm/2003">
 <defs>
  <style type="text/css">
   <![CDATA[
    .fil1 {fill:#FFF212;fill-rule:nonzero}
    .fil0 {fill:#E5143A;fill-rule:nonzero}
   ]]>
  </style>
 </defs>
 <g id="Capa_x0020_1">
  <metadata id="CorelCorpID_0Corel-Layer"/>
  <g id="_3153838680592">
   <path class="fil0" d="M40.77 31.44c2.78,1.26 4.97,3.25 6.59,5.97 1.6,2.72 2.41,5.71 2.41,9 0,4.11 -0.9,7.66 -2.7,10.61 -1.8,2.96 -4.42,5.21 -7.84,6.77 -3.43,1.54 -7.52,2.32 -12.29,2.32l-25.39 0c-0.54,0 -0.97,-0.15 -1.29,-0.44 -0.3,-0.3 -0.47,-0.72 -0.47,-1.25l0 -62.03c0,-0.54 0.17,-0.95 0.47,-1.26 0.32,-0.29 0.75,-0.44 1.29,-0.44l23.51 0c4.57,0 8.47,0.75 11.72,2.23 3.26,1.5 5.75,3.66 7.46,6.5 1.71,2.84 2.58,6.22 2.58,10.16 0,2.39 -0.55,4.67 -1.63,6.81 -1.1,2.15 -2.57,3.83 -4.42,5.05zm-10.16 -10.7c0,-1.69 -0.52,-3.04 -1.55,-4.01 -1.02,-1 -2.43,-1.49 -4.19,-1.49l-8.82 0 0 11.07 8.82 0c1.76,0 3.17,-0.51 4.19,-1.51 1.03,-1 1.55,-2.34 1.55,-4.06zm-3.9 30.82c2.09,0 3.74,-0.61 4.97,-1.82 1.22,-1.2 1.85,-2.82 1.85,-4.86 0,-2 -0.63,-3.58 -1.85,-4.72 -1.23,-1.15 -2.88,-1.73 -4.97,-1.73l-10.66 0 0 13.13 10.66 0z"/>
   <path class="fil0" d="M90.21 29.61c0.3,0.28 0.46,0.61 0.46,1.04 0,0.35 -0.13,0.73 -0.37,1.12l-5.32 8.33c-0.31,0.5 -0.73,0.76 -1.3,0.76 -0.3,0 -0.53,-0.08 -0.67,-0.23l-0.28 -0.18c-0.65,-0.6 -1.43,-1.04 -2.35,-1.32 -0.9,-0.29 -1.77,-0.42 -2.62,-0.42 -1.22,0 -2.33,0.29 -3.33,0.85 -1.01,0.57 -1.79,1.35 -2.35,2.33 -0.57,0.97 -0.86,2.06 -0.86,3.22l-0.04 -0.14 0 19.45c0,1.1 -0.52,1.65 -1.56,1.65l-11.74 0c-1.1,0 -1.65,-0.55 -1.65,-1.65l0 -35.83c0,-0.51 0.15,-0.92 0.47,-1.21 0.31,-0.31 0.72,-0.46 1.22,-0.46l9.31 0c0.37,0 0.69,0.09 0.97,0.26 0.29,0.15 0.49,0.38 0.61,0.69l0.9 2.9c1.39,-1.57 3.01,-2.83 4.84,-3.76 1.85,-0.92 3.7,-1.37 5.58,-1.37 2.07,0 3.99,0.33 5.78,0.99 1.79,0.67 3.23,1.67 4.3,2.98z"/>
   <path class="fil0" d="M111.28 27.71c0.11,0.22 0.16,0.48 0.16,0.79l0 36.04c0,1.06 -0.52,1.58 -1.56,1.58l-11.83 0c-0.51,0 -0.89,-0.14 -1.16,-0.4 -0.26,-0.28 -0.4,-0.66 -0.4,-1.18l0 -22.78 -1.88 0c-1.41,0 -2.57,-1.15 -2.57,-2.57l0 -9.66c0,-0.58 0.2,-1.12 0.53,-1.55 0.44,0.32 0.91,0.62 1.39,0.9 2.42,1.39 5,2.09 7.78,2.09 2.77,0 5.38,-0.71 7.78,-2.09 0.62,-0.35 1.21,-0.74 1.76,-1.17z"/>
   <path class="fil1" d="M101.74 29.35c-2.52,0 -4.83,-0.63 -6.97,-1.87 -2.14,-1.22 -3.81,-2.92 -5.05,-5.05 -1.24,-2.12 -1.85,-4.45 -1.85,-6.98 0,-2.5 0.61,-4.81 1.85,-6.92 1.24,-2.11 2.91,-3.82 5.05,-5.06 2.14,-1.26 4.45,-1.89 6.97,-1.89 2.51,0 4.84,0.63 6.98,1.89 2.13,1.24 3.81,2.95 5.05,5.08 1.24,2.14 1.85,4.45 1.85,6.9 0,2.53 -0.61,4.86 -1.85,6.98 -1.24,2.13 -2.92,3.83 -5.05,5.05 -2.14,1.24 -4.47,1.87 -6.98,1.87z"/>
   <path class="fil0" d="M131.02 0.64c0.51,0 0.89,0.14 1.16,0.4 0.26,0.28 0.4,0.66 0.4,1.16l0 49.17 0.63 0c0.72,0 1.16,0.61 1.31,1.31l2.18 9.96c0.41,1.89 -1.59,3.52 -3.52,3.52l-8.15 0c-4.07,0 -7.4,-3.32 -7.4,-7.4l0 -6.08 0 -0.03 0 -50.45c0,-0.5 0.14,-0.88 0.43,-1.16 0.28,-0.26 0.66,-0.4 1.13,-0.4l11.83 0z"/>
   <path class="fil0" d="M181.04 25.59c4.03,0 7.54,0.61 10.5,1.85 2.98,1.24 5.26,3.03 6.85,5.35 1.6,2.34 2.4,5.07 2.4,8.24l0 23.3c0,0.56 -0.14,1 -0.43,1.34 -0.27,0.32 -0.67,0.49 -1.18,0.49l-7.84 -0.05c-0.27,0 -0.52,-0.06 -0.73,-0.19 -0.23,-0.14 -0.4,-0.32 -0.52,-0.57l-1.35 -2.81c-1.43,1.54 -3.19,2.76 -5.3,3.67 -2.11,0.88 -4.54,1.34 -7.32,1.34 -2.98,0 -5.58,-0.5 -7.77,-1.5 -2.2,-1.01 -3.9,-2.46 -5.09,-4.37 -1.19,-1.91 -1.79,-4.19 -1.79,-6.85 0,-3.79 1.23,-6.63 3.67,-8.51 2.45,-1.88 6.06,-2.83 10.79,-2.86l10.12 -0.05 0 -1.25c0,-1.31 -0.49,-2.37 -1.49,-3.13 -1,-0.78 -2.33,-1.18 -3.96,-1.18 -3.89,0 -7.2,0.6 -9.96,1.8 -0.44,0.17 -0.85,0.26 -1.25,0.26 -0.67,0 -1.16,-0.27 -1.42,-0.85l-3.06 -6.9c-0.17,-0.35 -0.26,-0.72 -0.26,-1.07 0,-0.78 0.51,-1.43 1.53,-1.97 1.88,-1.01 4.2,-1.86 7,-2.52 2.8,-0.67 5.41,-1.01 7.86,-1.01zm-0.76 31.08c1.74,0 3.13,-0.48 4.18,-1.44 1.07,-0.95 1.59,-2.35 1.59,-4.2l-6.57 0c-1.16,0 -2.03,0.23 -2.6,0.71 -0.56,0.48 -0.85,1.12 -0.85,1.92 0,0.9 0.39,1.62 1.19,2.18 0.78,0.55 1.8,0.83 3.06,0.83z"/>
   <path class="fil0" d="M153.95 0.64c0.51,0 0.89,0.14 1.16,0.4 0.26,0.28 0.4,0.66 0.4,1.16l0 49.17 0.62 0c0.73,0 1.17,0.61 1.32,1.31l2.18 9.96c0.41,1.89 -1.59,3.52 -3.52,3.52l-8.15 0c-4.07,0 -7.4,-3.32 -7.4,-7.4l0 -6.08 0 -0.03 0 -50.45c0,-0.5 0.14,-0.88 0.43,-1.16 0.27,-0.26 0.66,-0.4 1.13,-0.4l11.83 0z"/>
  </g>
 </g>
</svg>
